{
	"patcher" : 	{
		"fileversion" : 1,
		"appversion" : 		{
			"major" : 8,
			"minor" : 5,
			"revision" : 2,
			"architecture" : "x64",
			"modernui" : 1
		}
,
		"classnamespace" : "dsp.gen",
		"rect" : [ 189.0, 164.0, 703.0, 601.0 ],
		"bglocked" : 0,
		"openinpresentation" : 0,
		"default_fontsize" : 12.0,
		"default_fontface" : 0,
		"default_fontname" : "Arial",
		"gridonopen" : 1,
		"gridsize" : [ 15.0, 15.0 ],
		"gridsnaponopen" : 1,
		"objectsnaponopen" : 1,
		"statusbarvisible" : 2,
		"toolbarvisible" : 1,
		"lefttoolbarpinned" : 0,
		"toptoolbarpinned" : 0,
		"righttoolbarpinned" : 0,
		"bottomtoolbarpinned" : 0,
		"toolbars_unpinned_last_save" : 0,
		"tallnewobj" : 0,
		"boxanimatetime" : 200,
		"enablehscroll" : 1,
		"enablevscroll" : 1,
		"devicewidth" : 0.0,
		"description" : "",
		"digest" : "",
		"tags" : "",
		"style" : "",
		"subpatcher_template" : "",
		"assistshowspatchername" : 0,
		"boxes" : [ 			{
				"box" : 				{
					"id" : "obj-6",
					"maxclass" : "newobj",
					"numinlets" : 1,
					"numoutlets" : 0,
					"patching_rect" : [ 567.0, 561.0, 117.0, 22.0 ],
					"text" : "out 5 @comment b2"
				}

			}
, 			{
				"box" : 				{
					"id" : "obj-8",
					"maxclass" : "newobj",
					"numinlets" : 1,
					"numoutlets" : 0,
					"patching_rect" : [ 429.25, 561.0, 117.0, 22.0 ],
					"text" : "out 4 @comment b1"
				}

			}
, 			{
				"box" : 				{
					"id" : "obj-4",
					"maxclass" : "newobj",
					"numinlets" : 1,
					"numoutlets" : 0,
					"patching_rect" : [ 291.5, 561.0, 117.0, 22.0 ],
					"text" : "out 3 @comment a2"
				}

			}
, 			{
				"box" : 				{
					"id" : "obj-3",
					"maxclass" : "newobj",
					"numinlets" : 1,
					"numoutlets" : 0,
					"patching_rect" : [ 153.75, 561.0, 117.0, 22.0 ],
					"text" : "out 2 @comment a1"
				}

			}
, 			{
				"box" : 				{
					"id" : "obj-2",
					"maxclass" : "newobj",
					"numinlets" : 1,
					"numoutlets" : 0,
					"patching_rect" : [ 16.0, 561.0, 117.0, 22.0 ],
					"text" : "out 1 @comment a0"
				}

			}
, 			{
				"box" : 				{
					"id" : "obj-7",
					"maxclass" : "newobj",
					"numinlets" : 0,
					"numoutlets" : 1,
					"outlettype" : [ "" ],
					"patching_rect" : [ 321.0, 16.0, 265.0, 22.0 ],
					"text" : "in 2 @comment Q @default 0.5 @min 0.000001"
				}

			}
, 			{
				"box" : 				{
					"code" : "// The coefficients are calculated based on the Nigel Redmon formula.\n// https://www.earlevel.com/main/2011/01/02/biquad-formulas/\r\n\r\nHistory K(0);\r\nHistory a0(0);\r\nHistory a1(0);\r\nHistory a2(0);\r\nHistory b1(0);\r\nHistory b2(0);\r\n\r\nisFrequencyChanged\t= change(in1);\r\nisQChanged\t\t\t= change(in2);\r\n\r\nif(isFrequencyChanged || isQChanged)\r\n{\r\n\tK = tan(PI * in1 / SAMPLERATE);\r\n\tQ = in2;\r\n\t\r\n\tnorm = 1 / (1 + K / Q + K * K);\n\ta0 = K * K * norm;\n\ta1 = 2 * a0;\n\ta2 = a0;\n\tb1 = 2 * (K * K - 1) * norm;\n\tb2 = (1 - K / Q + K * K) * norm;\r\n}\r\n\r\nout1 = a0;\r\nout2 = a1;\r\nout3 = a2;\r\nout4 = b1;\r\nout5 = b2;",
					"fontface" : 0,
					"fontname" : "<Monospaced>",
					"fontsize" : 12.0,
					"id" : "obj-5",
					"maxclass" : "codebox",
					"numinlets" : 2,
					"numoutlets" : 5,
					"outlettype" : [ "", "", "", "", "" ],
					"patching_rect" : [ 16.0, 55.0, 570.0, 484.0 ]
				}

			}
, 			{
				"box" : 				{
					"id" : "obj-1",
					"maxclass" : "newobj",
					"numinlets" : 0,
					"numoutlets" : 1,
					"outlettype" : [ "" ],
					"patching_rect" : [ 16.0, 16.0, 269.0, 22.0 ],
					"text" : "in 1 @comment frequency @default 440 @min 0"
				}

			}
 ],
		"lines" : [ 			{
				"patchline" : 				{
					"destination" : [ "obj-5", 0 ],
					"source" : [ "obj-1", 0 ]
				}

			}
, 			{
				"patchline" : 				{
					"destination" : [ "obj-2", 0 ],
					"source" : [ "obj-5", 0 ]
				}

			}
, 			{
				"patchline" : 				{
					"destination" : [ "obj-3", 0 ],
					"source" : [ "obj-5", 1 ]
				}

			}
, 			{
				"patchline" : 				{
					"destination" : [ "obj-4", 0 ],
					"source" : [ "obj-5", 2 ]
				}

			}
, 			{
				"patchline" : 				{
					"destination" : [ "obj-6", 0 ],
					"source" : [ "obj-5", 4 ]
				}

			}
, 			{
				"patchline" : 				{
					"destination" : [ "obj-8", 0 ],
					"source" : [ "obj-5", 3 ]
				}

			}
, 			{
				"patchline" : 				{
					"destination" : [ "obj-5", 1 ],
					"midpoints" : [ 330.5, 46.0, 576.5, 46.0 ],
					"source" : [ "obj-7", 0 ]
				}

			}
 ]
	}

}
